<svg width="87" height="60" viewBox="0 0 87 60" fill="none" xmlns="http://www.w3.org/2000/svg">
<g clip-path="url(#clip0_1119_811)">
<path d="M26.5132 22.7114C22.9233 22.7114 20.0424 19.8191 20.0424 16.2742C20.0424 14.1026 21.8092 12.3243 23.9924 12.3243C26.1755 12.3243 27.9421 14.0911 27.9421 16.2742H24.8925C24.8925 15.7793 24.4875 15.3741 23.9924 15.3741C23.4972 15.3741 23.092 15.7793 23.092 16.2742C23.092 18.1423 24.6113 19.6617 26.4795 19.6617C29.6528 19.6617 32.2073 17.0845 32.2073 13.9223C32.2073 7.9017 27.3234 3.04018 21.3254 3.04018C11.2533 3.04018 3.04967 11.2332 3.04967 21.3158H0C0 9.56722 9.56529 0.00188481 21.3254 0.00188481C29.0114 0.00188481 35.2571 6.22506 35.2571 13.8659C35.2571 18.7727 31.3407 22.7114 26.5132 22.7114Z" fill="#221F20"/>
<path d="M26.2178 30.1322C26.2178 29.1069 25.4713 28.2549 24.4235 28.2549C23.3756 28.2549 22.6441 29.0916 22.6441 30.1322C22.6441 31.1576 23.3904 32.0092 24.4386 32.0092C25.4866 32.0092 26.2178 31.1725 26.2178 30.1322ZM21.6715 30.1322C21.6715 28.6469 22.8175 27.4028 24.4386 27.4028C26.0595 27.4028 27.1902 28.6316 27.1902 30.1322C27.1902 31.6173 26.0442 32.8613 24.4235 32.8613C22.8027 32.8613 21.6715 31.6325 21.6715 30.1322Z" fill="#221F20"/>
<path d="M31.4945 31.942V28.3304H29.6322V28.9335C29.6322 30.1551 29.4212 31.2107 29.0593 31.942H31.4945ZM27.559 31.942H28.0718C28.5089 31.0746 28.7427 30.0044 28.7427 28.24V27.4937H32.422V31.942H33.0779L32.9495 33.9019H32.1807V32.7712H28.4637L28.3733 33.9019H27.559V31.942Z" fill="#221F20"/>
<path d="M33.9065 27.4935H37.8194V28.323H34.8337V29.6949H37.48V30.5241H34.8337V31.9419H37.8567V32.771H33.9065V27.4935Z" fill="#221F20"/>
<path d="M38.7234 30.1322C38.7234 28.6316 39.8467 27.4028 41.445 27.4028C42.418 27.4028 43.0055 27.7421 43.5112 28.2247L42.9154 28.9106C42.4929 28.5187 42.0408 28.2549 41.4376 28.2549C40.4275 28.2549 39.696 29.0839 39.696 30.1322C39.696 31.1648 40.4275 32.0092 41.4376 32.0092C42.0861 32.0092 42.5007 31.7454 42.9528 31.3232L43.5486 31.9264C42.9981 32.4994 42.3949 32.8613 41.4071 32.8613C39.8694 32.8613 38.7234 31.6626 38.7234 30.1322Z" fill="#221F20"/>
<path d="M46.6313 31.9419C47.3177 31.9419 47.7171 31.6328 47.7171 31.0372C47.7171 30.4943 47.3177 30.2 46.6165 30.2H45.4401V31.9419H46.6313ZM44.5203 27.4935H45.4401V29.3934H46.6544C47.8377 29.3934 48.6369 29.9812 48.6369 31.0444C48.6369 32.1075 47.8682 32.771 46.6465 32.771H44.5203V27.4935Z" fill="#221F20"/>
<path d="M49.6091 27.4935H50.5364V30.1474L53.0472 27.4935H54.1857L51.9915 29.763L54.2833 32.771H53.16L51.3582 30.3962L50.5364 31.2406V32.771H49.6091V27.4935Z" fill="#221F20"/>
<path d="M55.0747 27.4935H55.9867V31.346L58.6557 27.4935H59.5228V32.771H58.6104V28.9261L55.9489 32.771H55.0747V27.4935Z" fill="#221F20"/>
<path d="M61.9492 26.0233L62.5149 25.9176C62.6051 26.2345 62.8011 26.4302 63.1408 26.4302C63.4801 26.4302 63.6683 26.2345 63.7662 25.9176L64.3246 26.0233C64.2262 26.6716 63.7815 27.0789 63.1408 27.0789C62.4997 27.0789 62.055 26.6716 61.9492 26.0233ZM60.8865 27.4935H61.7985V31.346L64.4675 27.4935H65.3346V32.771H64.4222V28.9261L61.7606 32.771H60.8865V27.4935Z" fill="#221F20"/>
<path d="M21.9054 36.5393H22.8328V38.7331H25.3507V36.5393H26.2781V41.8169H25.3507V39.5928H22.8328V41.8169H21.9054V36.5393Z" fill="#221F20"/>
<path d="M30.8311 39.7207L29.919 37.6097L29.0141 39.7207H30.8311ZM29.5042 36.5015H30.3638L32.6858 41.8169H31.7056L31.1702 40.5426H28.6749L28.1319 41.8169H27.182L29.5042 36.5015Z" fill="#221F20"/>
<path d="M37.6686 41.817H33.5897V36.5395H34.5175V40.9802H36.9902V36.5395H37.9099V40.9802H38.5661L38.4377 42.9482H37.6686V41.817Z" fill="#221F20"/>
<path d="M39.4469 36.5393H40.3743V41.8169H39.4469V36.5393Z" fill="#221F20"/>
<path d="M46.0965 39.178C46.0965 38.1526 45.35 37.301 44.3021 37.301C43.2542 37.301 42.5225 38.1376 42.5225 39.178C42.5225 40.2033 43.269 41.0554 44.3169 41.0554C45.3652 41.0554 46.0965 40.2186 46.0965 39.178ZM41.5499 39.178C41.5499 37.6929 42.6958 36.449 44.3169 36.449C45.9379 36.449 47.0686 37.6776 47.0686 39.178C47.0686 40.6633 45.9227 41.9072 44.3021 41.9072C42.681 41.9072 41.5499 40.6786 41.5499 39.178Z" fill="#221F20"/>
<path d="M48.1914 36.5393H49.1191V38.7331H51.6369V36.5393H52.5646V41.8169H51.6369V39.5928H49.1191V41.8169H48.1914V36.5393Z" fill="#221F20"/>
<path d="M57.1173 39.7207L56.2053 37.6097L55.3007 39.7207H57.1173ZM55.7902 36.5015H56.65L58.9722 41.8169H57.9923L57.4566 40.5426H54.961L54.4183 41.8169H53.4684L55.7902 36.5015Z" fill="#221F20"/>
<path d="M59.2354 41.7948L59.3259 41.0332C59.3939 41.0557 59.5145 41.0786 59.6273 41.0786C60.1626 41.0786 60.6604 40.7392 60.6604 37.5803V36.5397H64.2793V41.8173H63.3516V37.3765H61.5276V37.8513C61.5276 41.2063 60.9165 41.8774 59.8764 41.8774C59.6726 41.8774 59.3786 41.8323 59.2354 41.7948Z" fill="#221F20"/>
<path d="M67.7545 40.9873C68.4404 40.9873 68.8398 40.6785 68.8398 40.0826C68.8398 39.5398 68.4404 39.2457 67.7392 39.2457H66.5629V40.9873H67.7545ZM65.6434 36.5393H66.5629V38.4391H67.7767C68.9605 38.4391 69.7597 39.0275 69.7597 40.0903C69.7597 41.1533 68.9905 41.8169 67.7693 41.8169H65.6434V36.5393Z" fill="#221F20"/>
<path d="M70.7314 36.5393H71.6587V38.7331H74.1765V36.5393H75.1038V41.8169H74.1765V39.5928H71.6587V41.8169H70.7314V36.5393Z" fill="#221F20"/>
<path d="M76.4604 36.5393H77.3725V40.3917L80.0418 36.5393H80.9086V41.8169H79.9961V37.9716L77.3346 41.8169H76.4604V36.5393Z" fill="#221F20"/>
<path d="M83.3358 35.0692L83.9012 34.9634C83.9918 35.2804 84.1877 35.4761 84.527 35.4761C84.8659 35.4761 85.0545 35.2804 85.1529 34.9634L85.7104 35.0692C85.6128 35.7174 85.1677 36.1246 84.527 36.1246C83.8859 36.1246 83.4412 35.7174 83.3358 35.0692ZM82.2727 36.5393H83.1847V40.3917L85.8541 36.5393H86.7208V41.8169H85.8084V37.9716L83.1477 41.8169H82.2727V36.5393Z" fill="#221F20"/>
<path d="M23.4282 48.1795L21.5811 45.5858H22.6744L23.9862 47.4783L25.3057 45.5858H26.3687L24.529 48.1642L26.4439 50.8633H25.3507L23.9635 48.8653L22.5688 50.8633H21.5059L23.4282 48.1795Z" fill="#221F20"/>
<path d="M27.2801 50.6824L27.6345 49.9885C27.8456 50.1091 28.0492 50.1545 28.2828 50.1545C28.5166 50.1545 28.8483 50.0112 29.1123 49.5817L26.9108 45.5857H27.9511L29.5949 48.654L31.0424 45.5857H32.0449L29.9868 49.7098C29.542 50.6069 28.9991 50.9463 28.313 50.9463C27.9059 50.9463 27.5892 50.8482 27.2801 50.6824Z" fill="#221F20"/>
<path d="M35.95 50.0338V46.4224H34.0875V47.0255C34.0875 48.2472 33.8763 49.3025 33.5144 50.0338H35.95ZM32.0143 50.0338H32.527C32.9642 49.1666 33.1981 48.0965 33.1981 46.3318V45.5857H36.8772V50.0338H37.5332L37.4048 51.9941H36.636V50.8631H32.919L32.8286 51.9941H32.0143V50.0338Z" fill="#221F20"/>
<path d="M42.6741 48.2247C42.6741 47.1993 41.9276 46.3478 40.8798 46.3478C39.8319 46.3478 39.1004 47.1845 39.1004 48.2247C39.1004 49.2498 39.8467 50.1021 40.895 50.1021C41.9428 50.1021 42.6741 49.2654 42.6741 48.2247ZM38.1278 48.2247C38.1278 46.7398 39.2738 45.4955 40.895 45.4955C42.516 45.4955 43.6466 46.7245 43.6466 48.2247C43.6466 49.7102 42.5007 50.9541 40.8798 50.9541C39.259 50.9541 38.1278 49.7254 38.1278 48.2247Z" fill="#221F20"/>
<path d="M47.4981 50.8633V49.4612L46.6693 48.5187L45.0935 50.8633H43.9777L46.0582 47.8327L44.0831 45.5858H45.1915L47.4981 48.33V45.5858H48.4184V48.33L50.7254 45.5858H51.8338L49.8504 47.8327L51.9392 50.8633H50.8234L49.2472 48.5187L48.4184 49.4612V50.8633H47.4981Z" fill="#221F20"/>
<path d="M52.7297 45.5858H53.657V47.7797H56.1753V45.5858H57.1029V50.8633H56.1753V48.6393H53.657V50.8633H52.7297V45.5858Z" fill="#221F20"/>
<path d="M58.512 45.5858H59.4392V50.8633H58.512V45.5858Z" fill="#221F20"/>
<path d="M61.9114 44.1159L62.4771 44.0101C62.5673 44.3268 62.7637 44.5226 63.103 44.5226C63.4422 44.5226 63.6304 44.3268 63.7284 44.0101L64.2867 44.1159C64.1887 44.7639 63.744 45.1711 63.103 45.1711C62.4619 45.1711 62.0172 44.7639 61.9114 44.1159ZM60.8486 45.5858H61.7607V49.4381L64.43 45.5858H65.2967V50.8633H64.3843V47.0182L61.7228 50.8633H60.8486V45.5858Z" fill="#221F20"/>
<path d="M21.9054 54.6322H22.8931L24.4989 57.1275L26.1046 54.6322H27.0924V59.9097H26.1651V56.1253L24.4989 58.613H24.4687L22.8175 56.1401V59.9097H21.9054V54.6322Z" fill="#221F20"/>
<path d="M28.3279 59.7287L28.6824 59.0349C28.8936 59.1555 29.0971 59.2009 29.3306 59.2009C29.5644 59.2009 29.8961 59.0576 30.16 58.6276L27.9586 54.6321H28.9988L30.6427 57.7004L32.0901 54.6321H33.0928L31.0347 58.7558C30.5898 59.653 30.047 59.9922 29.3607 59.9922C28.9537 59.9922 28.6369 59.8942 28.3279 59.7287Z" fill="#221F20"/>
<path d="M37.3895 55.9588C37.3895 56.6372 36.96 56.9918 36.4923 57.1877C37.0806 57.3685 37.5254 57.7684 37.5254 58.4543C37.5254 59.3288 36.7638 60 35.5878 60C34.5622 60 33.8912 59.6983 33.3033 59.1329L33.8084 58.4921C34.2837 58.9443 34.849 59.1934 35.5652 59.1934C36.1229 59.1934 36.5982 58.8994 36.5982 58.4016C36.5982 57.8589 36.0778 57.6329 35.3919 57.6329H34.7959V56.8636H35.3841C36.0553 56.8636 36.4698 56.592 36.4698 56.0942C36.4698 55.6495 36.0626 55.3559 35.4747 55.3559C34.849 55.3559 34.3967 55.5592 33.9971 55.9438L33.4996 55.3407C34.0046 54.8585 34.6 54.5414 35.535 54.5414C36.6282 54.5414 37.3895 55.1369 37.3895 55.9588Z" fill="#221F20"/>
<path d="M38.6102 54.6322H42.5233V55.4615H39.5378V56.8335H42.184V57.6627H39.5378V59.0804H42.5612V59.9097H38.6102V54.6322Z" fill="#221F20"/>
<path d="M44.7241 53.162L45.2898 53.0565C45.38 53.3732 45.576 53.5691 45.9157 53.5691C46.255 53.5691 46.4431 53.3732 46.5411 53.0565L47.0995 53.162C47.0011 53.8103 46.5564 54.2176 45.9157 54.2176C45.2746 54.2176 44.8299 53.8103 44.7241 53.162ZM43.6614 54.6322H44.5734V58.4846L47.2424 54.6322H48.1095V59.9097H47.1971V56.0648L44.5355 59.9097H43.6614V54.6322Z" fill="#221F20"/>
</g>
<defs>
<clipPath id="clip0_1119_811">
<rect width="86.7225" height="60" fill="white"/>
</clipPath>
</defs>
</svg>
